<svg xmlns="http://www.w3.org/2000/svg" xmlns:xlink="http://www.w3.org/1999/xlink" width="80" height="116" viewBox="0 0 80 116"><defs><path d="M0 99.943h79.919V0H0v99.943z" transform="translate(0 .106)" id="A"/><clipPath id="B"><use xlink:href="#A"/></clipPath></defs><g fill="#250e62"><path d="M5.449 115.692v-2.128h1.465c1.284 0 2.369-.672 2.369-1.973v-.017c0-1.189-.896-1.913-2.257-1.913H4.768v6.031h.681zm1.49-2.748h-1.49v-2.654h1.525c.974 0 1.62.448 1.62 1.31v.017c0 .793-.655 1.327-1.654 1.327zm9.584 2.852c1.835 0 3.084-1.456 3.084-3.119v-.017c0-1.663-1.232-3.102-3.067-3.102s-3.084 1.456-3.084 3.119v.017c0 1.663 1.232 3.102 3.067 3.102zm.017-.629c-1.378 0-2.378-1.12-2.378-2.49v-.017c0-1.37.982-2.473 2.361-2.473s2.378 1.12 2.378 2.49v.017c0 1.37-.982 2.473-2.361 2.473zm8.387.526v-2.343h1.723l1.749 2.343h.836l-1.852-2.464c.948-.172 1.637-.758 1.637-1.758v-.017c0-.474-.172-.896-.465-1.189-.379-.379-.973-.603-1.714-.603h-2.593v6.031h.681zm1.852-2.955h-1.852v-2.447h1.861c.974 0 1.542.448 1.542 1.189v.017c0 .775-.646 1.241-1.551 1.241zm9.119 2.955v-5.402h2.025v-.629h-4.739v.629h2.025v5.402h.689zm8.912.095c1.508 0 2.516-.913 2.516-2.671v-3.455h-.681v3.506c0 1.318-.706 1.99-1.818 1.99-1.154 0-1.844-.732-1.844-2.033v-3.463h-.681v3.506c0 1.706 1.017 2.619 2.507 2.619zm10.127.009c1.017 0 1.861-.422 2.421-.922v-2.404h-2.49v.612h1.835v1.499a2.84 2.84 0 0 1-1.74.603c-1.465 0-2.386-1.068-2.386-2.507v-.017c0-1.344.956-2.473 2.292-2.473.853 0 1.37.284 1.835.689l.439-.517c-.603-.508-1.232-.801-2.249-.801-1.809 0-3.024 1.465-3.024 3.119v.017c0 1.723 1.172 3.102 3.067 3.102zm7.335-.103l.715-1.594h3.282l.707 1.594h.732l-2.748-6.074h-.638l-2.748 6.074h.698zm3.73-2.206h-2.748l1.378-3.076 1.37 3.076zm10.17 2.206v-.629h-3.395v-5.402h-.681v6.031h4.075z"/><path d="M4.288 79.398V54.717h18.323v4.828H9.596v5.01h11.452v4.828H9.596v5.185h13.189v4.83H4.288zM41.94 63.124c0 2.079-1.491 3.487-4.097 3.487h-5.411v-7.084h5.309c2.603 0 4.198 1.197 4.198 3.527v.07zm4.328 13.485l-4.119-6.116c3.09-1.166 5.205-3.667 5.205-7.651v-.073c0-5.075-3.434-8.142-9.163-8.142H27.086v22.487c0 1.66 1.326 2.194 2.96 2.194h2.386v-7.901h4.198l4.31 6.538.074.112a2.88 2.88 0 0 0 2.367 1.251h4.703l-1.815-2.699h0zm13.302-7.653l3.205-7.95 3.205 7.95h-6.41zm5.719-14.329h-4.891L50.059 79.308h3.413c1.229 0 2.282-.76 2.734-1.838l.004-.01 1.465-3.652h10.201l2.205 5.499h5.549l-10.341-24.68h0z" fill-rule="evenodd"/></g><g clip-path="url(#B)"><g fill="#c8102e" fill-rule="evenodd"><path d="M4.288 88.757h71.343v-4.935H4.288v4.935zM0 52.323l39.961-18.332V.106L0 29.284v23.039z"/></g><path d="M79.919 52.323L39.958 33.991V.106l39.961 29.178v23.039z" fill="#8a1538" fill-rule="evenodd"/><g fill="#250e62"><path d="M4.29 99.935h1.448v-6.688H4.29v6.688zm9.179 0v-4.367l-1.852 2.857h-.039l-1.834-2.828v4.338h-1.42v-6.688h1.561l1.732 2.828 1.73-2.828h1.56v6.688h-1.439zm9.15-3.345c0-1.145-.828-2.101-1.994-2.101s-1.975.935-1.975 2.082v.019c0 1.147.828 2.104 1.994 2.104s1.975-.937 1.975-2.083v-.02zm-1.994 3.459c-2.032 0-3.489-1.537-3.489-3.438v-.02c0-1.9 1.477-3.458 3.508-3.458s3.49 1.538 3.49 3.438v.019c0 1.902-1.478 3.459-3.509 3.459h0zm9.893-2.149c0-.449-.329-.726-1.073-.726h-1.674v1.472h1.721c.639 0 1.025-.23 1.025-.726v-.02zm-.367-2.674c0-.441-.339-.688-.95-.688h-1.43v1.414h1.336c.639 0 1.044-.211 1.044-.707v-.018zm-.658 4.71H26.36v-6.688h3.057c1.345 0 2.173.679 2.173 1.729v.021c0 .754-.395 1.174-.865 1.442.762.298 1.232.745 1.232 1.643v.02c0 1.222-.978 1.834-2.464 1.834h0zm4.664-.001h1.448v-6.688h-1.448v6.688zm4.034 0v-6.688h1.449v5.35h3.282v1.338h-4.731zm6.828 0h1.448v-6.688h-1.448v6.688zm6.357-7.213l1.063-1.691 1.232.544-1.204 1.147h-1.091zm.583 2.245l-.875 2.168h1.75l-.875-2.168zm1.994 4.968l-.601-1.501h-2.784l-.603 1.501h-1.476L51.31 93.2h1.335l2.822 6.735h-1.514zm7.476-4.405c0-.63-.433-.954-1.138-.954h-1.439v1.92h1.467c.705 0 1.11-.383 1.11-.946v-.019zm-.029 4.405l-1.41-2.142h-1.138v2.142h-1.448v-6.688h3.01c1.552 0 2.483.831 2.483 2.207v.019c0 1.08-.574 1.758-1.411 2.073l1.609 2.389H61.4zm3.808 0h1.449v-6.688h-1.449v6.688zm6.941-4.968l-.874 2.168h1.749l-.875-2.168zm1.994 4.968l-.602-1.5h-2.784l-.603 1.5h-1.477L71.5 93.2h1.335l2.822 6.735h-1.514z" fill-rule="evenodd"/></g></g></svg>